<svg width="150" height="150" viewBox="0 0 292 291" fill="none" xmlns="http://www.w3.org/2000/svg">
<path d="M75.5 47.5V57L62 54V53.5L63 43L66 33L71 23.5L80.5 12.5L91.5 5.5L104 1H119L135 7.5L146 13L156.5 6.5L173.5 1L189 1.5L202.5 6.5L214 15.5L220.5 23L226.5 34.5L229.5 45.5L230.5 57L228.5 64.5L224.5 76L218.5 89L211 99.5L193.5 118L173.5 135L154 148.5L141.5 156.5L129 165L116 175.5L108 183L100 190.5L91.5 199.5L83.5 211L78.5 223L75.5 233V245L77.5 251L83 262.5L89.5 268.5L96 273L104.5 276.5L106.5 277L119.5 276.5L131 272L136.5 267.5L141.5 262.5L146 257.5L153 266L159.5 271L167 275L177.5 277H186L189 276L199.5 271L208 263L213 256L216.5 243.5V234L229.5 237.5V248L227 257L222 266L214 275.5L203.5 284L189.5 290.5H185L173.5 289.5H170L161 287L151.5 281.5L145.5 277L141.5 280.5L133 285.5L120.5 290.5H109.5L101.5 289.5L94 287L86.5 283C85 282 81.6 279.7 80 278.5C78.4 277.3 76.3333 275 75.5 274L68 263.5L65 256.5L62.5 247V233L63.5 227.5L65.5 220.5L70 208.5L80.5 191L86 185.5L101 170.5L115.5 158.5L127 150.5L139.5 142L150 135.5L158.5 129.5L168 122.5L179.5 113L189 104L198.5 94.5L205.5 85.5L210.5 76L215 66L216.5 58V48.5L214 39L209 30L202.5 23L196 18L185 14.5H173L166 16.5L156 23L146 34.5L135 23L125.5 16.5L119 14.5H106L99.5 16.5L91 21.5L85.5 27L79 36.5L75.5 47.5Z" stroke="#7FEB73"/>
<path d="M143 128.5L132 135.5L115.5 113.5L108 106L97 95L83.5 83.5L58 74.5H48L40 76.5L26.5 84.5L17.5 96.5L14.5 104.5V114.5L15.5 120.5L18 126.5L23.5 135.5L34.5 145.5L26 152L19 161.5L15.5 168.5L14.5 174.5V185.5L19 196L21.5 199.5L32 210.5L47 215.5H57.5L54.5 229H47L38.5 227L30.5 224L19 216L13.5 211L9.5 206L2.5 191L1 180.5V173.5L2.5 166L9 152L14.5 145.5L2.5 125L1 108L4 94.5L11 82L21.5 72L31.5 65.5L43 62L52.5 61L62 62L70.5 64L89.5 72.5L104 83L111.5 90L133.5 115L143 128.5Z" stroke="#7FEB73"/>
<path d="M160 155L149 161.5L158.5 175L170 189.5L181.5 201L198 215L204.5 219L222.5 226.5L239 229L250.5 228L260 225L274 215L282.5 206L288.5 194L291 182L289.5 170.5L287.5 160.5L283.5 153L279 147.5L277.5 144.5L281.5 140L285 134L289.5 123.5L290.5 119.5V104L288.5 96L282.5 84.5L275 75.5L266.5 69L253 63.5L238 61L234.5 74.5H244.5L253.5 77L263.5 83L270 89.5L274.5 97.5L277.5 105.5V112.5L276.5 118.5L274.5 125L268 136L265 138.5L257.5 145.5L263.5 150.5L268.5 155L275 165L277.5 176.5V183L272.5 196.5L268 202.5L261 209L250.5 214L242.5 215.5L232 215L224.5 213L211 207L204.5 203L189.5 190.5L171.5 170L160 155Z" stroke="#7FEB73"/>
</svg>
